<?xml version="1.0" encoding="iso-8859-1"?>
<!-- Generator: Adobe Illustrator 19.0.0, SVG Export Plug-In . SVG Version: 6.00 Build 0)  -->
<svg version="1.1" id="Layer_1" xmlns="http://www.w3.org/2000/svg" xmlns:xlink="http://www.w3.org/1999/xlink" x="0px" y="0px"
	 viewBox="0 0 480 480" style="enable-background:new 0 0 480 480;" xml:space="preserve">
<g>
	<g>
		<g>
			<path d="M470,450.65h-83.496v-83.496c0-5.523-4.478-10-10-10h-48.618c-5.522,0-10,4.477-10,10v83.496h-17.397V322.276
				c0-5.523-4.478-10-10-10H241.87c-5.522,0-10,4.477-10,10V450.65h-24.877V273.659c0-5.523-4.478-10-10-10h-48.619
				c-5.522,0-10,4.477-10,10V450.65h-24.877V195.122c0-5.523-4.478-10-10-10H54.878c-5.522,0-10,4.477-10,10V450.65H20V19.35
				c0-5.523-4.478-10-10-10s-10,4.477-10,10v441.3c0,5.523,4.478,10,10,10h44.878h48.618h44.877h48.619h44.877h48.619h37.397h48.618
				H470c5.522,0,10-4.477,10-10S475.522,450.65,470,450.65z M93.496,450.65H64.878V205.122h28.618V450.65z M186.992,450.65h-28.619
				V283.659h28.619V450.65z M280.488,450.65h-28.619V332.276h28.619V450.65z M366.504,450.65h-28.618v-73.496h28.618V450.65z"/>
			<path d="M96.39,113.38l260.509,169.656l-15.065,2.877c-5.425,1.036-8.982,6.273-7.946,11.698
				c0.915,4.792,5.106,8.126,9.812,8.126c0.621,0,1.253-0.059,1.887-0.18l39.29-7.504c4.552-0.869,7.779-4.699,8.089-9.116
				c0.002-0.03,0.004-0.06,0.006-0.091c0.014-0.226,0.023-0.452,0.021-0.68c0.001-0.236-0.009-0.471-0.024-0.707
				c-0.002-0.029-0.003-0.057-0.006-0.086c-0.041-0.55-0.125-1.094-0.254-1.628l-7.041-37.557
				c-1.019-5.429-6.245-9.005-11.672-7.986c-5.428,1.018-9.004,6.243-7.986,11.671l2.825,15.067L107.304,96.621
				c-4.627-3.015-10.822-1.705-13.837,2.922C90.453,104.171,91.762,110.366,96.39,113.38z"/>
		</g>
	</g>
</g>
<g>
</g>
<g>
</g>
<g>
</g>
<g>
</g>
<g>
</g>
<g>
</g>
<g>
</g>
<g>
</g>
<g>
</g>
<g>
</g>
<g>
</g>
<g>
</g>
<g>
</g>
<g>
</g>
<g>
</g>
</svg>
